<svg xmlns="http://www.w3.org/2000/svg" width="330.639" height="161.782"><path class="st0 p1" d="M36.035 61.875c-2.649 1.243-6.809 2.355-12.48 3.34-5.227.914-9.492 1.371-12.797 1.371-2.368 0-4.066-.364-5.098-1.09-1.406-.984-2.109-2.789-2.109-5.414l.703-11.637c.609-10.734.914-22.641.914-35.719 0-1.007.334-1.863 1.002-2.566s1.494-1.055 2.479-1.055c1.007 0 1.846.352 2.514 1.055s1.002 1.559 1.002 2.566c0 13.242-.316 25.29-.949 36.141l-.457 5.344c-.188 1.946-.258 3.668-.211 5.168 6.117.07 13.852-1.371 23.203-4.324a3.997 3.997 0 011.125-.176c1.007 0 1.851.399 2.531 1.195.585.727.879 1.559.879 2.496-.001 1.5-.751 2.602-2.251 3.305zM60.961 64.934c-5.297 0-9.586-1.324-12.867-3.973-3.586-2.93-5.379-7.031-5.379-12.305 0-6.094 1.477-11.203 4.43-15.328 3.211-4.5 7.5-6.75 12.867-6.75 3.89 0 7.066.656 9.527 1.969 3.023 1.617 4.535 4.102 4.535 7.453 0 2.344-1.324 4.477-3.973 6.398-1.172.844-3.656 2.157-7.453 3.938l-13.43 6.363c1.313 1.946 2.947 3.41 4.904 4.395 1.957.984 4.236 1.477 6.838 1.477 1.617 0 3.516-.304 5.695-.914 2.765-.773 4.547-1.787 5.344-3.041.796-1.253 1.652-1.881 2.566-1.881.82 0 1.552.311 2.197.932s.967 1.342.967 2.162c0 2.602-2.098 4.84-6.293 6.715-3.584 1.593-7.077 2.39-10.475 2.39zm-.949-32.028c-2.86 0-5.238 1.107-7.137 3.322s-3.317 5.549-4.254 10.002l10.793-5.133c4.242-2.062 7.265-3.855 9.07-5.379-2.016-1.874-4.839-2.812-8.472-2.812zM100.406 64.934c-5.297 0-9.586-1.324-12.867-3.973-3.586-2.93-5.379-7.031-5.379-12.305 0-6.094 1.477-11.203 4.43-15.328 3.211-4.5 7.5-6.75 12.867-6.75 3.89 0 7.066.656 9.527 1.969 3.023 1.617 4.535 4.102 4.535 7.453 0 2.344-1.324 4.477-3.973 6.398-1.172.844-3.656 2.157-7.453 3.938l-13.43 6.363c1.313 1.946 2.947 3.41 4.904 4.395 1.957.984 4.236 1.477 6.838 1.477 1.617 0 3.516-.304 5.695-.914 2.765-.773 4.547-1.787 5.344-3.041.796-1.253 1.652-1.881 2.566-1.881.82 0 1.552.311 2.197.932s.967 1.342.967 2.162c0 2.602-2.098 4.84-6.293 6.715-3.584 1.593-7.077 2.39-10.475 2.39zm-.949-32.028c-2.86 0-5.238 1.107-7.137 3.322s-3.317 5.549-4.254 10.002l10.793-5.133c4.242-2.062 7.265-3.855 9.07-5.379-2.015-1.874-4.839-2.812-8.472-2.812zM152.719 64.758c-1.289 0-2.285-.68-2.988-2.039-1.219-2.367-3.059-5.168-5.52-8.402l-6.223-8.473c-1.359 1.078-3.469 2.59-6.328 4.535a149.924 149.924 0 00-.387 10.617c0 1.055-.322 1.911-.967 2.566-.645.656-1.471.984-2.479.984-2.368 0-3.551-1.594-3.551-4.781 0-1.945.135-4.857.404-8.736.269-3.879.404-6.791.404-8.736 0-3.563.053-7.634.158-12.217.105-4.582.158-8.631.158-12.146 0-1.055-.053-2.297-.158-3.727-.105-1.429-.158-2.672-.158-3.727s.322-1.91.967-2.566c.645-.656 1.471-.984 2.479-.984 1.007 0 1.833.329 2.479.984.645.656.967 1.512.967 2.566 0 1.078.058 2.35.176 3.814.117 1.465.176 2.737.176 3.814l-.246 11.32a300.608 300.608 0 00-.105 12.234 98.038 98.038 0 009.211-8.016l7.734-7.98c.773-.796 1.605-1.195 2.496-1.195.914 0 1.74.364 2.479 1.09.738.727 1.107 1.57 1.107 2.531 0 .797-.34 1.582-1.02 2.355-2.883 3.375-6.434 6.996-10.652 10.863l7.664 10.441c3.586 4.899 5.379 8.086 5.379 9.563 0 .938-.369 1.746-1.107 2.426s-1.588 1.022-2.549 1.022zM196.313 17.121a3.59 3.59 0 01-1.336-.281c-2.906-1.078-6.75-1.617-11.531-1.617-1.547 0-3.357.111-5.432.334-2.074.223-4.4.568-6.979 1.037l-.07 15.188c4.523-1.195 7.922-1.793 10.195-1.793 3.609 0 7.348.211 11.215.633 2.203.234 3.305 1.43 3.305 3.586 0 1.055-.34 1.928-1.02 2.619-.68.691-1.524 1.037-2.531 1.037-1.219 0-3.047-.105-5.484-.316-2.438-.211-4.266-.316-5.484-.316-1.594 0-5.04.68-10.336 2.039l-.316 24.188c0 1.007-.329 1.857-.984 2.549-.656.691-1.489 1.037-2.496 1.037-1.008 0-1.846-.346-2.514-1.037-.668-.691-1.002-1.542-1.002-2.549 0-4.617.088-11.549.264-20.795s.264-16.177.264-20.795c0-1.031-.018-2.584-.053-4.658s-.053-3.626-.053-4.658c0-1.031.322-1.898.967-2.602.645-.703 1.482-1.055 2.514-1.055.773 0 1.464.211 2.074.633 2.906-.515 5.52-.896 7.84-1.143s4.359-.369 6.117-.369c2.695 0 5.777.387 9.246 1.16 4.711 1.078 7.066 2.484 7.066 4.219 0 .938-.305 1.77-.914 2.496-.681.819-1.525 1.229-2.532 1.229zM219.199 65.391c-3.938 0-7.325-1.454-10.16-4.359-3.164-3.234-4.829-7.582-4.992-13.043-.141-5.296 1.195-9.961 4.008-13.992 3.281-4.758 7.852-7.137 13.711-7.137 4.688 0 8.238 2.145 10.652 6.434 1.921 3.469 2.848 7.641 2.777 12.516-.07 5.203-1.43 9.645-4.078 13.324-3 4.171-6.973 6.257-11.918 6.257zm2.11-31.395c-3.445-.023-6.129 1.617-8.051 4.922-1.524 2.649-2.285 5.672-2.285 9.07 0 3.398.926 6.047 2.777 7.945 1.547 1.57 3.363 2.355 5.449 2.355 2.438 0 4.535-.891 6.293-2.672 1.992-1.969 3.046-4.628 3.164-7.98.328-9.07-2.121-13.616-7.347-13.64zM257.063 65.391c-3.938 0-7.325-1.454-10.16-4.359-3.164-3.234-4.829-7.582-4.992-13.043-.141-5.296 1.195-9.961 4.008-13.992 3.281-4.758 7.852-7.137 13.711-7.137 4.688 0 8.238 2.145 10.652 6.434 1.921 3.469 2.848 7.641 2.777 12.516-.07 5.203-1.43 9.645-4.078 13.324-3.001 4.171-6.974 6.257-11.918 6.257zm2.109-31.395c-3.445-.023-6.13 1.617-8.051 4.922-1.524 2.649-2.285 5.672-2.285 9.07 0 3.398.926 6.047 2.777 7.945 1.547 1.57 3.362 2.355 5.449 2.355 2.438 0 4.535-.891 6.293-2.672 1.991-1.969 3.046-4.628 3.164-7.98.329-9.07-2.121-13.616-7.347-13.64zM281.708 24.855c-1.806 0-2.742-1.078-2.813-3.234-.023-.844.246-2.531.809-5.063l1.336-6.152c.328-1.851 1.218-2.777 2.672-2.777.844 0 1.529.316 2.057.949s.791 1.383.791 2.25c.047 1.969-.575 5.532-1.863 10.688-.564 2.227-1.561 3.339-2.989 3.339zM326.509 36.246c-1.289 0-2.192-.434-2.707-1.301-.352-.609-.656-1.875-.914-3.797-1.758.445-4.465 1.266-8.121 2.461-3.774 1.5-5.673 3.352-5.695 5.555.703.258 1.394.445 2.074.563 5.391.961 9.398 2.285 12.023 3.973 3.819 2.461 5.73 6.024 5.73 10.688 0 3.82-1.652 6.703-4.957 8.648-2.742 1.594-6.211 2.391-10.406 2.391-3.071 0-6-.516-8.789-1.547-3.609-1.313-5.414-3.141-5.414-5.484 0-.937.369-1.758 1.107-2.461s1.576-1.055 2.514-1.055c.726 0 1.664.563 2.813 1.688.563.54 1.828.984 3.797 1.336 1.569.281 2.895.422 3.973.422 1.969 0 3.703-.234 5.203-.703 2.18-.68 3.27-1.758 3.27-3.234 0-3.187-2.228-5.344-6.68-6.469l-3.656-.809c-3.117-.68-5.332-1.477-6.645-2.391-1.898-1.313-2.848-3.292-2.848-5.941 0-4.898 2.308-8.39 6.926-10.477 1.406-.633 3.656-1.389 6.75-2.268s5.309-1.623 6.645-2.232c.961-.422 2.004-.633 3.129-.633 1.007 0 1.833.329 2.479.984.645.656.967 1.512.967 2.566 0 .68.146 1.676.439 2.988.293 1.313.439 2.309.439 2.988 0 1.055-.322 1.911-.967 2.566-.646.657-1.472.985-2.479.985zM32.948 118.68c-.656 0-2.086-.152-4.289-.457-.188 3.539-.281 9.738-.281 18.598 0 .938-.305 1.729-.914 2.373-.61.645-1.371.967-2.285.967-.938 0-1.711-.322-2.32-.967-.61-.645-.914-1.436-.914-2.373v-10.336c0-3.445.211-8.297.633-14.555.469-6.773.726-11.625.773-14.555v-4.852c0-2.32.141-4.008.422-5.063.539-2.062 1.688-2.953 3.445-2.672.75-.234 1.816-.41 3.199-.527 1.383-.117 3.082-.176 5.098-.176 4.289 0 8.309 1.465 12.059 4.395 4.125 3.234 6.188 7.125 6.188 11.672 0 5.813-2.203 10.441-6.609 13.887-3.939 3.094-8.674 4.641-14.205 4.641zm1.758-27.914c-1.032 0-1.951.023-2.76.07-.809.047-1.494.118-2.057.211l-.07 6.469-.738 13.992 3.867.457c3.938 0 7.254-.996 9.949-2.988 2.953-2.18 4.43-5.121 4.43-8.824 0-2.625-1.406-4.887-4.219-6.785-2.601-1.735-5.402-2.602-8.402-2.602zM73.976 141.391c-3.938 0-7.325-1.453-10.16-4.359-3.164-3.234-4.829-7.582-4.992-13.043-.141-5.296 1.195-9.961 4.008-13.992 3.281-4.758 7.852-7.137 13.711-7.137 4.688 0 8.238 2.145 10.652 6.434 1.921 3.469 2.848 7.641 2.777 12.516-.07 5.203-1.43 9.645-4.078 13.324-3.001 4.171-6.974 6.257-11.918 6.257zm2.109-31.395c-3.445-.023-6.129 1.617-8.051 4.922-1.524 2.649-2.285 5.672-2.285 9.07 0 3.398.926 6.047 2.777 7.945 1.547 1.57 3.363 2.355 5.449 2.355 2.438 0 4.535-.891 6.293-2.672 1.992-1.969 3.046-4.629 3.164-7.98.329-9.07-2.121-13.616-7.347-13.64zM126.007 113.336c-.164 2.93-1.336 4.395-3.516 4.395-2.016 0-3.023-1.16-3.023-3.48 0-.445-.035-1.266-.105-2.461l-.105-2.953c-3.704.445-6.668 1.489-8.895 3.129-2.086 1.524-3.82 3.82-5.203 6.891l.07 19.266c0 2.367-1.16 3.551-3.48 3.551-2.063 0-3.094-1.184-3.094-3.551v-24.68c0-.773.029-1.934.088-3.48.058-1.547.088-2.707.088-3.48 0-2.367 1.031-3.551 3.094-3.551 2.297 0 3.457 1.946 3.48 5.836 4.5-4.336 9.492-6.504 14.977-6.504 1.898 0 3.316.715 4.254 2.145.937 1.43 1.406 3.586 1.406 6.469-.001 1.216-.013 2.036-.036 2.458zM156.769 109.363c-.492 0-1.072-.023-1.74-.07a25.201 25.201 0 00-1.74-.07c-.54 0-2.133.176-4.781.527l.668 20.777.035 1.547.035 1.793c.093 5.133-1.137 7.699-3.691 7.699a3.575 3.575 0 01-2.443-.914c-.691-.609-1.037-1.371-1.037-2.285 0-.891.035-2.227.105-4.008s.105-3.117.105-4.008l-.703-20.531c-1.711-.07-4.313-.269-7.805-.598-2.086-.281-3.129-1.441-3.129-3.48 0-1.031.316-1.886.949-2.566.633-.68 1.441-1.02 2.426-1.02l7.383.598c0-1.195-.053-2.795-.158-4.799s-.158-3.451-.158-4.342c0-.984.339-1.798 1.02-2.443.68-.645 1.512-.967 2.496-.967 2.109 0 3.34 1.723 3.691 5.168.07.867.105 1.911.105 3.129l-.07 2.039-.035 2.18c2.906-.375 4.57-.563 4.992-.563 2.438 0 4.031.118 4.781.352 1.429.469 2.145 1.57 2.145 3.305 0 1.032-.322 1.881-.967 2.549-.646.667-1.472 1.001-2.479 1.001zM190.8 89.887c-5.672 0-8.848 3.938-9.527 11.813l-.105 2.18c3.984-.281 6.562-.422 7.734-.422 3.727 0 5.59 1.172 5.59 3.516 0 1.711-.914 2.73-2.742 3.059-.797.141-1.729.193-2.795.158-1.067-.035-3.768.123-8.104.475l-.281 8.016c0 1.454.047 3.633.141 6.539.093 2.906.141 5.074.141 6.504 0 4.453-.258 7.922-.773 10.406-.399 1.875-1.489 2.813-3.27 2.813-.961 0-1.781-.311-2.461-.932-.68-.621-1.02-1.4-1.02-2.338 0-.188.023-.422.07-.703.492-3.047.738-6.363.738-9.949l-.105-9.598v-10.195c-2.93.234-4.781.352-5.555.352-2.368 0-3.551-1.137-3.551-3.41 0-2.32 2.051-3.539 6.152-3.656l3.375-.105c.07-1.313.246-3.094.527-5.344.609-5.203 1.921-9.035 3.938-11.496 2.438-2.976 6.246-4.465 11.426-4.465 3.352 0 5.027 1.137 5.027 3.41 0 2.247-1.524 3.372-4.57 3.372zM216.956 141.391c-3.938 0-7.325-1.453-10.16-4.359-3.164-3.234-4.829-7.582-4.992-13.043-.141-5.296 1.195-9.961 4.008-13.992 3.281-4.758 7.852-7.137 13.711-7.137 4.688 0 8.238 2.145 10.652 6.434 1.921 3.469 2.848 7.641 2.777 12.516-.07 5.203-1.43 9.645-4.078 13.324-3 4.171-6.973 6.257-11.918 6.257zm2.109-31.395c-3.445-.023-6.129 1.617-8.051 4.922-1.524 2.649-2.285 5.672-2.285 9.07 0 3.398.926 6.047 2.777 7.945 1.547 1.57 3.363 2.355 5.449 2.355 2.438 0 4.535-.891 6.293-2.672 1.992-1.969 3.046-4.629 3.164-7.98.329-9.07-2.12-13.616-7.347-13.64zM250.565 111.684l-.527 17.473c0 1.852-.094 4.57-.281 8.156-.234 2.344-1.383 3.516-3.445 3.516-2.297 0-3.445-1.195-3.445-3.586 0-2.836.129-7.096.387-12.779s.387-9.943.387-12.779c0-3.703.059-7.939.176-12.709.117-4.769.176-9.005.176-12.709 0-2.343 1.148-3.516 3.445-3.516 2.32 0 3.48 1.172 3.48 3.516 0 3.704-.059 7.94-.176 12.709a519.826 519.826 0 00-.177 12.708zM269.655 123.355c0 1.406.041 3.51.123 6.311s.123 4.904.123 6.311c0 1.031-.316 1.875-.949 2.531s-1.465.984-2.496.984c-1.008 0-1.834-.328-2.479-.984s-.967-1.5-.967-2.531c0-1.406-.041-3.51-.123-6.311s-.123-4.904-.123-6.311c0-2.203.117-4.951.352-8.244.234-3.292.352-6.041.352-8.244 0-1.055.322-1.91.967-2.566.645-.656 1.471-.984 2.479-.984s1.834.329 2.479.984c.645.656.967 1.512.967 2.566 0 2.203-.117 4.952-.352 8.244-.236 3.293-.353 6.042-.353 8.244zm-1.582-28.546c-1.125 0-2.098-.398-2.918-1.195-.82-.796-1.23-1.758-1.23-2.883s.41-2.086 1.23-2.883c.82-.796 1.793-1.195 2.918-1.195s2.092.399 2.9 1.195c.809.797 1.213 1.758 1.213 2.883s-.404 2.086-1.213 2.883c-.808.796-1.775 1.195-2.9 1.195zM294.721 141.391c-3.938 0-7.324-1.453-10.16-4.359-3.164-3.234-4.828-7.582-4.992-13.043-.141-5.296 1.195-9.961 4.008-13.992 3.281-4.758 7.852-7.137 13.711-7.137 4.688 0 8.238 2.145 10.652 6.434 1.922 3.469 2.848 7.641 2.777 12.516-.07 5.203-1.43 9.645-4.078 13.324-3 4.171-6.972 6.257-11.918 6.257zm2.11-31.395c-3.445-.023-6.129 1.617-8.051 4.922-1.523 2.649-2.285 5.672-2.285 9.07 0 3.398.926 6.047 2.777 7.945 1.547 1.57 3.363 2.355 5.449 2.355 2.438 0 4.535-.891 6.293-2.672 1.992-1.969 3.047-4.629 3.164-7.98.328-9.07-2.121-13.616-7.347-13.64z"/></svg>